<svg xmlns:dc="http://purl.org/dc/elements/1.1/" xmlns:cc="http://creativecommons.org/ns#" xmlns:rdf="http://www.w3.org/1999/02/22-rdf-syntax-ns#" xmlns:svg="http://www.w3.org/2000/svg" xmlns="http://www.w3.org/2000/svg" xmlns:sodipodi="http://sodipodi.sourceforge.net/DTD/sodipodi-0.dtd" xmlns:inkscape="http://www.inkscape.org/namespaces/inkscape" id="svg3680" xml:space="preserve" width="318" height="110" viewBox="0 0 318.00001 110" sodipodi:docname="logovyg.svg" inkscape:version="0.92.1 r15371"><metadata></metadata><defs id="defs3684"><pattern y="0" x="0" height="6" width="6" patternUnits="userSpaceOnUse" id="EMFhbasepattern"></pattern></defs><path id="path3753" d="m 57.394096,26.267537 -8.06657,-6.4128 c 0,0 -26.0582,31.07444 -26.0582,31.07444 l -14.78873,-28.89724 -7.59207014,6.0565 c 0,0 21.70858014,41.68332 21.70858014,41.68332 z" style="fill:#2d2f92;fill-opacity:1;fill-rule:evenodd;stroke:none;stroke-width:1.04662788" inkscape:connector-curvature="0"></path><path id="path3755" d="m 52.530426,43.407977 -8.14566,-0.91045 0.0791,43.900043 26.69088,0.11875 0.0396,-25.136633 -12.77208,0.19793 0.0791,7.91704 4.90322,0.31668 -0.31634,6.88784 -10.51818,-0.11876 z" style="fill:#2d2f92;fill-opacity:1;fill-rule:evenodd;stroke:none;stroke-width:1.04662788" inkscape:connector-curvature="0"></path><path id="path3757" d="m 27.144446,34.065837 12.93024,31.62863 -11.86261,15.39867 c 0,0 5.53589,8.906683 5.53589,8.906683 0,0 42.42861,-53.242183 42.42861,-53.242183 0,0 -7.78979,-6.2545 -7.78979,-6.2545 0,0 -21.23408,26.24507 -21.23408,26.24507 0,0 -11.8626,-30.12437 -11.8626,-30.12437 -8.14566,7.442 0,0 -8.14566,7.442 z" style="fill:#00adef;fill-opacity:1;fill-rule:evenodd;stroke:none;stroke-width:1.04662788" inkscape:connector-curvature="0"></path><path id="path3759" d="m 44.384766,32.997037 v 16.74459 l 2.76794,7.00658 5.33818,-6.57115 0.0396,-6.76908 16.40995,-0.35626 c 0,0 0,-10.01508 0,-10.01508 l -17.16126,-0.04 c 0,0 -7.39436,0 -7.39436,0 z" style="fill:#2d2f92;fill-opacity:1;fill-rule:evenodd;stroke:none;stroke-width:1.04662788" inkscape:connector-curvature="0"></path><path id="path3761" d="m 95.235833,51.641717 2.609779,1.22714 c 0.0396,0.98962 0.0791,1.82092 0.0791,2.57304 0,3.7606 -0.75131,6.72949 -2.214369,8.98585 -1.50259,2.21678 -3.47969,3.36475 -5.97084,3.36475 -6.247648,0 -9.371458,-6.4524 -9.371458,-19.31761 0,-6.13571 0.90946,-11.08385 2.7284,-14.88405 1.81893,-3.8002 4.19145,-5.7003 7.117568,-5.7003 4.54733,0 6.840769,4.0377 6.840769,12.07353 l -2.609779,2.17719 c 0.0396,-1.10839 0.0396,-1.97927 0.0396,-2.61263 0,-5.70029 -1.2258,-8.55039 -3.7565,-8.55039 -2.609778,0 -3.954198,6.0565 -3.954198,18.13002 0,10.41092 1.463048,15.59659 4.428708,15.59659 1.2258,0 2.25389,-0.87088 3.04474,-2.65221 0.83038,-1.78134 1.2258,-3.99811 1.2258,-6.65033 0,-0.83128 -0.0791,-2.09802 -0.23725,-3.76059 z M 108.8383,27.850937 c 6.12902,0 9.17376,6.6504 9.17376,19.951 0,13.34024 -3.12382,19.99056 -9.37147,19.99056 -6.24764,0 -9.331928,-6.80867 -9.331928,-20.42599 0,-13.02357 3.163368,-19.51557 9.529638,-19.51557 z m -0.19771,3.0481 c -1.14671,0 -1.93756,1.1876 -2.33298,3.5231 -0.39542,2.2959 -0.59313,6.76907 -0.59313,13.3798 0,6.61074 0.19771,11.08387 0.59313,13.4194 0.39542,2.33553 1.18627,3.48351 2.33298,3.48351 1.14672,0 1.93756,-1.14798 2.37252,-3.48351 0.39543,-2.33553 0.59313,-6.80866 0.59313,-13.4194 0,-6.57115 -0.1977,-11.0443 -0.59313,-13.3798 -0.43496,-2.3355 -1.2258,-3.5231 -2.37252,-3.5231 z m 27.48172,-2.4147 v 38.6748 h -4.7055 l -8.77833,-24.4637 v 24.4637 h -2.01665 v -38.6748 h 3.83558 l 9.60871,26.44295 v -26.44295 z m 18.26843,0 v 3.8794 h -5.14046 v 34.7954 h -6.4849 v -34.7954 h -5.21955 v -3.8794 z m 11.15085,0 5.85222,38.6748 h -6.12901 l -1.26535,-8.43167 h -6.32672 l -1.34443,8.43167 h -2.37252 l 6.20809,-38.6748 z m -7.27574,26.36378 h 5.18002 l -2.49116,-17.06128 z m 14.78873,12.31102 v -38.6748 h 8.69925 c 6.2081,0 9.29238,6.4524 9.29238,19.3572 0,12.8652 -3.2029,19.3176 -9.60872,19.3176 z m 6.08948,-3.20641 h 1.62122 c 1.46306,0 2.45161,-1.14797 3.04474,-3.4835 0.55358,-2.33553 0.83038,-6.57115 0.83038,-12.66729 0,-6.09612 -0.2768,-10.3317 -0.83038,-12.6673 -0.55359,-2.2959 -1.58168,-3.4835 -3.04474,-3.4835 h -1.62122 z m 23.21118,-36.10179 c 6.12901,0 9.21329,6.6504 9.21329,19.951 0,13.34024 -3.12382,19.99056 -9.37147,19.99056 -6.24763,0 -9.37146,-6.80867 -9.37146,-20.42599 0,-13.02357 3.20291,-19.51557 9.52964,-19.51557 z m -0.15818,3.0481 c -1.14671,0 -1.93756,1.1876 -2.33297,3.5231 -0.43497,2.2959 -0.63268,6.76907 -0.63268,13.3798 0,6.61074 0.19771,11.08387 0.63268,13.4194 0.39541,2.33553 1.18626,3.48351 2.33297,3.48351 1.14673,0 1.93756,-1.14798 2.33299,-3.48351 0.39542,-2.33553 0.63268,-6.80866 0.63268,-13.4194 0,-6.57115 -0.23726,-11.0443 -0.63268,-13.3798 -0.39543,-2.3355 -1.18626,-3.5231 -2.33299,-3.5231 z m 12.06033,36.2601 v -38.6748 h 9.05513 c 2.37253,0 4.231,0.9105 5.65451,2.7314 1.38398,1.8209 2.09573,4.2752 2.09573,7.3232 0,4.7107 -1.5026,7.75877 -4.54733,9.18383 1.58167,1.06881 2.57022,2.21678 3.04473,3.48351 0.43496,1.26673 0.75131,3.72101 0.90947,7.32327 0.19771,4.35437 0.59313,7.2441 1.18626,8.62959 h -6.60352 c -0.43497,-1.82093 -0.63268,-4.03771 -0.63268,-6.7295 l -0.0396,-2.29594 -0.0396,-2.85014 c 0,-4.47314 -0.98855,-6.68991 -2.92611,-6.68991 h -1.02809 v 18.56549 z m 6.12902,-21.77189 h 1.2258 c 2.29344,0 3.44016,-2.21678 3.44016,-6.65031 0,-4.4336 -1.14672,-6.6503 -3.44016,-6.6503 h -1.2258 z m 27.44217,-16.90291 v 3.8794 h -7.55253 v 11.71719 h 6.36627 v 3.87936 h -6.36627 v 15.31949 h 8.85743 v 3.87936 h -14.9469 v -38.6748 z m 16.96355,10.8464 -2.84703,0.95001 c 0.11863,-1.02921 0.19771,-1.90011 0.19771,-2.61261 0,-4.5127 -1.5026,-6.7691 -4.46825,-6.7691 -2.33299,0 -3.51925,1.5438 -3.51925,4.6711 0,2.2959 1.30489,4.31475 3.9542,5.97733 5.02185,3.16683 7.55254,7.87747 7.55254,14.13194 0,3.68143 -0.71176,6.61074 -2.13527,8.82751 -1.42351,2.21678 -3.28199,3.32517 -5.65452,3.32517 -5.21954,0 -7.78978,-3.68143 -7.78978,-11.08388 0,-0.63336 0,-1.3459 0.0791,-2.25636 l 2.92611,-1.18756 c -0.23725,1.66258 -0.35587,3.04807 -0.35587,4.27522 0,4.78981 1.50259,7.20451 4.50779,7.20451 2.37252,0 3.59832,-1.74175 3.59832,-5.18567 0,-2.57304 -1.42351,-4.8294 -4.31008,-6.76908 -4.15192,-2.81055 -6.2081,-7.28368 -6.2081,-13.41943 0,-3.4835 0.67221,-6.2544 2.05618,-8.392 1.38398,-2.1376 3.20291,-3.1669 5.4568,-3.1669 4.62642,0 6.95941,3.8002 6.95941,11.4798 z" style="fill:#2d2f92;fill-opacity:1;fill-rule:nonzero;stroke:none;stroke-width:1.04662788" inkscape:connector-curvature="0"></path><path id="path3763" d="m 279.69948,53.027197 -1.66077,0.51461 c 0.0396,-0.55419 0.0791,-0.98963 0.0791,-1.3459 0,-2.29595 -0.86992,-3.44392 -2.60977,-3.44392 -1.38397,0 -2.05619,0.79171 -2.05619,2.37512 0,1.14797 0.7513,2.17718 2.29344,3.04806 2.96566,1.623 4.46825,4.03769 4.46825,7.20452 0,1.8605 -0.43496,3.36474 -1.26534,4.51271 -0.83039,1.14797 -1.93756,1.70217 -3.32154,1.70217 -3.04473,0 -4.58688,-1.9001 -4.58688,-5.66069 0,-0.31668 0.0396,-0.71254 0.0396,-1.14798 l 1.73985,-0.63335 c -0.11863,0.87087 -0.19771,1.5834 -0.19771,2.21677 0,2.4147 0.86993,3.64184 2.64932,3.64184 1.38397,0 2.09572,-0.87088 2.09572,-2.65222 0,-1.3063 -0.83038,-2.45427 -2.53069,-3.4439 -2.41206,-1.42508 -3.63786,-3.72102 -3.63786,-6.84826 0,-1.78134 0.39542,-3.2064 1.2258,-4.2752 0.79084,-1.06881 1.85848,-1.62299 3.2029,-1.62299 2.68886,0 4.07284,1.93967 4.07284,5.85861 z m 3.67741,9.3817 c 1.06763,0 1.58167,0.83129 1.58167,2.53346 0,1.70217 -0.51404,2.57304 -1.58167,2.57304 -1.06765,0 -1.62123,-0.87087 -1.62123,-2.57304 0,-1.70217 0.55358,-2.53346 1.62123,-2.53346 z m 9.33192,-14.92364 3.44015,19.75304 h -3.59833 l -0.75129,-4.31478 h -3.71695 l -0.79084,4.31478 h -1.38398 l 3.63787,-19.75304 z m -4.27054,13.45899 h 3.04473 l -1.46305,-8.70876 z m 10.24138,1.46465 c 1.06764,0 1.62123,0.83129 1.62123,2.53346 0,1.70217 -0.55359,2.57304 -1.62123,2.57304 -1.06763,0 -1.58168,-0.87087 -1.58168,-2.57304 0,-1.70217 0.51405,-2.53346 1.58168,-2.53346 z m 11.90216,-3.08765 1.54213,0.63337 c 0.0396,0.51461 0.0396,0.95005 0.0396,1.30631 0,1.9001 -0.43497,3.44392 -1.3049,4.59189 -0.86992,1.14797 -2.05618,1.70217 -3.51924,1.70217 -3.63787,0 -5.49635,-3.28558 -5.49635,-9.85673 0,-3.12723 0.5536,-5.66069 1.62123,-7.60037 1.06763,-1.93968 2.45161,-2.88972 4.15192,-2.88972 2.68886,0 4.03329,2.05843 4.03329,6.13571 l -1.54215,1.14797 c 0.0396,-0.59377 0.0396,-1.02921 0.0396,-1.3459 0,-2.9293 -0.75129,-4.39396 -2.21436,-4.39396 -1.54214,0 -2.33298,3.08765 -2.33298,9.26295 0,5.30442 0.86992,7.95664 2.60978,7.95664 0.71176,0 1.30489,-0.43544 1.77939,-1.3459 0.47451,-0.91046 0.71176,-2.01885 0.71176,-3.40434 0,-0.39584 -0.0396,-1.06879 -0.11863,-1.90009 z m 4.5078,3.08765 c 1.06763,0 1.58167,0.83129 1.58167,2.53346 0,1.70217 -0.51404,2.57304 -1.58167,2.57304 -1.06764,0 -1.58169,-0.87087 -1.58169,-2.57304 0,-1.70217 0.51405,-2.53346 1.58169,-2.53346 z" style="fill:#2d2f92;fill-opacity:1;fill-rule:nonzero;stroke:none;stroke-width:1.04662788" inkscape:connector-curvature="0"></path><path id="path3765" d="m 88.078725,79.826407 c -0.27679,-2.29595 0.197718,-4.19604 1.383978,-5.6211 1.14671,-1.42507 2.68886,-2.13761 4.62642,-2.13761 1.62122,0 3.005189,0.51461 4.112359,1.58342 1.14672,1.02921 1.818938,2.45428 2.016648,4.23562 0.15817,1.26672 0.0396,2.41469 -0.355874,3.52308 -0.316334,0.79171 -0.711764,1.50425 -1.225804,2.09802 -0.51405,0.59378 -1.10717,1.02922 -1.73985,1.3459 -0.830379,0.43544 -1.739849,0.63337 -2.767939,0.63337 -1.02809,0 -2.01664,-0.23752 -2.92611,-0.75212 -0.90947,-0.47503 -1.62123,-1.18757 -2.17482,-2.05844 -0.51404,-0.91046 -0.86993,-1.8605 -0.949008,-2.85014 z m 1.700308,0.0791 c 0.0791,0.79172 0.31634,1.46467 0.71176,2.09802 0.35587,0.67295 0.90947,1.14797 1.58168,1.50425 0.67221,0.35626 1.34443,0.55419 2.01665,0.55419 0.67221,0 1.30488,-0.15834 1.89801,-0.47503 0.55359,-0.31667 1.028099,-0.75211 1.463049,-1.3063 0.39543,-0.59379 0.71176,-1.26674 0.90947,-2.09802 0.15818,-0.8313 0.19772,-1.66259 0.11864,-2.45429 -0.15818,-1.26673 -0.63268,-2.33553 -1.42352,-3.08765 -0.830389,-0.75212 -1.779399,-1.14797 -2.847029,-1.14797 -1.34443,0 -2.49115,0.59377 -3.40062,1.74175 -0.90947,1.14797 -1.26534,2.73138 -1.02809,4.67105 z m 18.189337,3.68143 c -0.98855,1.26674 -2.05618,1.90009 -3.24245,1.90009 -0.71176,0 -1.34442,-0.19791 -1.81893,-0.63335 -0.51404,-0.39586 -0.79085,-0.91046 -0.86993,-1.50425 -0.0396,-0.39585 0,-1.10839 0.11863,-2.05843 l 0.63267,-5.42318 h 1.62123 l -0.71176,6.09613 c -0.0396,0.5146 -0.0791,0.91046 -0.0396,1.18755 0.0396,0.31669 0.19771,0.5542 0.43497,0.75213 0.23724,0.15834 0.55358,0.2771 0.98855,0.2771 0.47451,0 0.86992,-0.11876 1.30488,-0.35627 0.39543,-0.19793 0.7513,-0.47503 1.0281,-0.87088 0.27679,-0.35626 0.4745,-0.7917 0.63267,-1.30631 0.0791,-0.31669 0.15816,-0.87088 0.23726,-1.70216 l 0.43495,-4.07729 h 1.62123 l -1.02809,9.4213 h -1.5026 z m 7.47345,0.39586 -0.11862,1.30632 c -0.39542,0.11875 -0.7513,0.15833 -1.10718,0.15833 -0.63268,0 -1.14672,-0.15833 -1.58168,-0.47502 -0.31634,-0.23751 -0.4745,-0.55419 -0.51404,-0.98963 -0.0396,-0.19793 0,-0.67295 0.0791,-1.42507 l 0.51404,-5.46277 h -1.26534 l 0.11862,-1.22714 h 1.26535 l 0.23726,-2.33553 1.7003,-1.10839 -0.35588,3.44392 h 1.58169 l -0.11863,1.22714 h -1.58168 l -0.47451,5.22526 c -0.0791,0.63336 -0.11863,1.02921 -0.0791,1.18756 0,0.15834 0.0791,0.31668 0.19772,0.43544 0.11862,0.0791 0.31633,0.11875 0.55358,0.11875 0.35589,0 0.67222,0 0.94901,-0.0791 z m 1.22581,-1.93967 1.62122,-0.0791 c 0.0396,0.43543 0.15816,0.83128 0.31634,1.18756 0.19771,0.31668 0.4745,0.55419 0.86993,0.7917 0.43495,0.19793 0.86991,0.31668 1.38396,0.31668 0.71176,0 1.2258,-0.15834 1.54215,-0.43543 0.31633,-0.27711 0.43495,-0.63337 0.39541,-1.02923 -0.0396,-0.27709 -0.15816,-0.5146 -0.39541,-0.75211 -0.23726,-0.2771 -0.79085,-0.5542 -1.70031,-0.95005 -0.86993,-0.35627 -1.42352,-0.59378 -1.70031,-0.75211 -0.39542,-0.23753 -0.7513,-0.51462 -0.98855,-0.87088 -0.23725,-0.31669 -0.39542,-0.67295 -0.43497,-1.10839 -0.0791,-0.75212 0.15818,-1.38549 0.67222,-1.90009 0.55359,-0.5542 1.34443,-0.8313 2.41206,-0.8313 1.14672,0 2.09573,0.2771 2.76795,0.8313 0.67221,0.55419 1.06763,1.26672 1.18626,2.17718 l -1.54215,0.0791 c -0.0791,-0.55419 -0.35587,-0.98963 -0.75129,-1.3459 -0.39542,-0.31668 -0.94901,-0.47503 -1.66077,-0.47503 -0.55359,0 -0.949,0.11877 -1.22581,0.35628 -0.27679,0.27709 -0.39541,0.55419 -0.35587,0.83128 0,0.31669 0.19771,0.5542 0.47451,0.79171 0.19771,0.15834 0.67221,0.39586 1.42351,0.71254 1.30489,0.5146 2.09572,0.95004 2.45161,1.26672 0.55358,0.47502 0.90947,1.06881 0.98855,1.78134 0.0396,0.47502 -0.0396,0.91046 -0.27679,1.3459 -0.23726,0.47502 -0.63268,0.83128 -1.18627,1.10839 -0.59313,0.23751 -1.26534,0.39584 -2.05619,0.39584 -1.06763,0 -2.01664,-0.27709 -2.84702,-0.83128 -0.83039,-0.51462 -1.26534,-1.38548 -1.38397,-2.61263 z m 9.17375,-0.35628 c -0.19771,-1.82092 0.15817,-3.36474 1.10718,-4.5523 0.79083,-0.98963 1.89802,-1.50424 3.36107,-1.50424 1.10718,0 2.05618,0.35626 2.84703,1.06881 0.7513,0.71253 1.22581,1.66258 1.34443,2.88972 0.11863,1.0688 0.0396,2.05843 -0.31634,3.00848 -0.31633,0.91046 -0.86993,1.62299 -1.62122,2.1376 -0.7513,0.47502 -1.58168,0.75211 -2.45161,0.75211 -0.7513,0 -1.42352,-0.15833 -2.05618,-0.47502 -0.63268,-0.31668 -1.14672,-0.75212 -1.5026,-1.34589 -0.39542,-0.5542 -0.63268,-1.22715 -0.71176,-1.97927 z m 1.58168,-0.15834 c 0.0791,0.91046 0.39542,1.58341 0.86993,2.01885 0.47451,0.47502 1.02809,0.71253 1.70031,0.71253 0.35587,0 0.67221,-0.0791 0.98855,-0.23751 0.31633,-0.11875 0.63267,-0.35626 0.86992,-0.63336 0.27679,-0.2771 0.4745,-0.59378 0.63268,-0.95005 0.19771,-0.35626 0.31633,-0.75212 0.39542,-1.18756 0.11862,-0.59377 0.11862,-1.14797 0.0791,-1.66257 -0.11862,-0.87088 -0.39542,-1.54383 -0.86993,-2.01885 -0.47449,-0.43544 -1.06763,-0.67296 -1.70031,-0.67296 -0.51404,0 -0.949,0.11877 -1.34442,0.35628 -0.39543,0.23751 -0.7513,0.59377 -1.02809,1.02921 -0.2768,0.47502 -0.47451,0.98964 -0.55359,1.62299 -0.0791,0.59379 -0.11863,1.14798 -0.0396,1.623 z m 14.86781,2.05843 c -0.98855,1.26674 -2.09573,1.90009 -3.28198,1.90009 -0.71176,0 -1.3049,-0.19791 -1.81894,-0.63335 -0.47451,-0.39586 -0.7513,-0.91046 -0.83038,-1.50425 -0.0396,-0.39585 0,-1.10839 0.0791,-2.05843 l 0.63267,-5.42318 h 1.62122 l -0.67221,6.09613 c -0.0791,0.5146 -0.0791,0.91046 -0.0396,1.18755 0.0396,0.31669 0.15818,0.5542 0.39543,0.75213 0.23725,0.15834 0.59313,0.2771 0.98855,0.2771 0.4745,0 0.90947,-0.11876 1.30488,-0.35627 0.43497,-0.19793 0.75131,-0.47503 1.0281,-0.87088 0.2768,-0.35626 0.51405,-0.7917 0.63267,-1.30631 0.11863,-0.31669 0.19771,-0.87088 0.27679,-1.70216 l 0.43497,-4.07729 h 1.58169 l -1.02811,9.4213 h -1.46304 z m 3.87512,1.70218 0.90947,-9.4213 h 1.42351 l -0.19771,1.90009 c 0.39542,-0.71253 0.83038,-1.26672 1.26535,-1.58341 0.39541,-0.35626 0.86992,-0.55419 1.34442,-0.55419 0.31635,0 0.71176,0.11875 1.22581,0.35626 l -0.51405,1.50425 c -0.27679,-0.19793 -0.59313,-0.31668 -0.90946,-0.31668 -0.59314,0 -1.10718,0.31668 -1.66077,0.95004 -0.51404,0.63336 -0.86993,1.74175 -1.02809,3.36475 l -0.35588,3.80019 z m 12.13941,-3.44392 1.62122,0.15833 c -0.27679,1.18756 -0.7513,2.05844 -1.42352,2.61264 -0.6722,0.59377 -1.50259,0.87086 -2.4516,0.87086 -1.02809,0 -1.89801,-0.35626 -2.60977,-0.98962 -0.67222,-0.67295 -1.10718,-1.58342 -1.2258,-2.77097 -0.11863,-1.02921 -0.0396,-2.05844 0.23725,-3.04807 0.31633,-0.98962 0.83038,-1.74174 1.5026,-2.25636 0.71175,-0.5146 1.54213,-0.7917 2.53068,-0.7917 1.02809,0 1.85848,0.31668 2.49115,0.87088 0.67222,0.59377 1.0281,1.34589 1.14672,2.25635 l -1.58168,0.11876 c -0.0396,-0.59378 -0.2768,-1.0688 -0.67221,-1.38548 -0.35589,-0.35627 -0.83039,-0.51461 -1.38398,-0.51461 -0.63266,0 -1.18626,0.19793 -1.62121,0.59378 -0.43497,0.43543 -0.71176,1.02922 -0.90947,1.8605 -0.15818,0.8313 -0.19772,1.623 -0.11864,2.41471 0.0791,0.7917 0.31635,1.38548 0.71176,1.78133 0.39543,0.43544 0.86993,0.63336 1.38398,0.63336 0.51404,0 0.98855,-0.19792 1.42351,-0.59377 0.43497,-0.39585 0.7513,-1.02922 0.94901,-1.82092 z m 4.03329,-7.75872 0.15817,-1.82092 h 1.58167 l -0.15816,1.82092 z m -1.10718,11.20264 0.90946,-9.4213 h 1.62123 l -0.94901,9.4213 z m 4.07283,0 0.90947,-9.4213 h 1.46305 l -0.15817,1.623 c 0.5536,-0.63337 1.10718,-1.10839 1.62123,-1.38549 0.51404,-0.31667 1.06763,-0.47502 1.66077,-0.47502 0.75129,0 1.38396,0.23751 1.89802,0.63337 0.4745,0.43544 0.7513,0.98963 0.83038,1.66258 0.0396,0.35626 0,0.91046 -0.0791,1.66258 l -0.63267,5.70028 h -1.58169 l 0.67222,-5.97738 c 0.0396,-0.59378 0.0791,-0.98963 0.0396,-1.26673 -0.0396,-0.31668 -0.15816,-0.59378 -0.43496,-0.7917 -0.23725,-0.19793 -0.55359,-0.2771 -0.98855,-0.2771 -0.83039,0 -1.54214,0.2771 -2.13527,0.87087 -0.59314,0.59378 -0.94901,1.623 -1.06764,3.04807 l -0.43496,4.39397 z m 10.08323,0.831283 1.66075,0.15835 c 0,0.35626 0.0791,0.63336 0.19772,0.83128 0.11863,0.19793 0.31633,0.31669 0.55358,0.43544 0.2768,0.11876 0.67222,0.19793 1.14672,0.19793 0.94901,0 1.62123,-0.2771 1.97711,-0.75212 0.23725,-0.35627 0.43496,-1.068813 0.51404,-2.216783 l 0.0791,-0.75212 c -0.71176,0.8313 -1.54213,1.26674 -2.49114,1.26674 -0.94902,0 -1.7794,-0.35628 -2.5307,-1.06881 -0.71176,-0.67295 -1.14671,-1.70216 -1.26535,-2.9689 -0.11862,-1.06879 0,-2.01885 0.43497,-2.9293 0.39542,-0.87088 0.90947,-1.54383 1.54214,-1.97926 0.67221,-0.47503 1.34443,-0.71254 2.09573,-0.71254 1.2258,0 2.25389,0.59377 3.04473,1.74175 l 0.15817,-1.50424 h 1.46306 l -0.86993,9.06502 c -0.11862,1.02922 -0.27679,1.781343 -0.55359,2.375123 -0.27679,0.5542 -0.71175,0.98963 -1.26534,1.26673 -0.55359,0.31668 -1.2258,0.47502 -2.01664,0.47502 -0.7513,0 -1.42352,-0.0791 -2.01665,-0.27709 -0.55359,-0.19793 -0.98855,-0.47503 -1.30489,-0.87088 -0.31633,-0.35627 -0.4745,-0.79171 -0.55358,-1.30632 0,-0.11875 0,-0.27709 0,-0.47502 z m 1.46305,-5.027333 c 0.0396,0.67295 0.15816,1.14797 0.31634,1.46466 0.23725,0.47502 0.55358,0.83129 0.90946,1.0688 0.35588,0.23751 0.71175,0.35627 1.10718,0.35627 0.55358,0 1.02809,-0.19793 1.54213,-0.55419 0.47451,-0.39586 0.83039,-0.95006 1.06764,-1.74176 0.23726,-0.75211 0.31634,-1.50423 0.23726,-2.21677 -0.0791,-0.75212 -0.39543,-1.38549 -0.86993,-1.86051 -0.47451,-0.43543 -1.02809,-0.67294 -1.66077,-0.67294 -0.39541,0 -0.7513,0.11875 -1.10717,0.31668 -0.35589,0.19792 -0.63268,0.5146 -0.90947,0.95004 -0.27679,0.43544 -0.47451,0.95005 -0.55359,1.54383 -0.0791,0.59377 -0.11863,1.0688 -0.0791,1.34589 z m 23.52751,-0.39584 1.73985,0.23751 c -0.39542,1.50423 -1.02809,2.6522 -2.01664,3.40432 -0.94901,0.79171 -2.05619,1.14797 -3.36107,1.14797 -1.58168,0 -2.88658,-0.47502 -3.91467,-1.42506 -1.02809,-0.98963 -1.66076,-2.37512 -1.85848,-4.15646 -0.27679,-2.33552 0.23726,-4.2752 1.46306,-5.81903 1.10718,-1.3459 2.57024,-2.01884 4.42872,-2.01884 1.38396,0 2.53068,0.35626 3.47969,1.10838 0.94901,0.71254 1.54214,1.70217 1.81893,2.9689 l -1.58167,0.15834 c -0.31635,-0.95004 -0.7513,-1.66258 -1.3049,-2.1376 -0.59312,-0.43544 -1.30488,-0.67295 -2.17481,-0.67295 -1.58168,0 -2.80748,0.71253 -3.59832,2.09802 -0.71176,1.22714 -0.98855,2.69179 -0.79085,4.35438 0.11863,1.34589 0.59314,2.37511 1.3049,3.04806 0.75129,0.71253 1.66076,1.0688 2.68885,1.0688 0.90947,0 1.70031,-0.2771 2.33298,-0.87088 0.67222,-0.59377 1.10718,-1.42507 1.34443,-2.49386 z m 3.12383,0.98962 c -0.19771,-1.82092 0.15816,-3.36474 1.10717,-4.5523 0.79084,-0.98963 1.89802,-1.50424 3.36108,-1.50424 1.10718,0 2.09573,0.35626 2.84703,1.06881 0.79084,0.71253 1.2258,1.66258 1.38396,2.88972 0.11863,1.0688 0,2.05843 -0.31633,3.00848 -0.35588,0.91046 -0.90947,1.62299 -1.66077,2.1376 -0.7513,0.47502 -1.54214,0.75211 -2.45161,0.75211 -0.71175,0 -1.42351,-0.15833 -2.05618,-0.47502 -0.63268,-0.31668 -1.14672,-0.75212 -1.50259,-1.34589 -0.39543,-0.5542 -0.63268,-1.22715 -0.71176,-1.97927 z m 1.58167,-0.15834 c 0.11864,0.91046 0.39543,1.58341 0.86993,2.01885 0.47451,0.47502 1.06764,0.71253 1.70031,0.71253 0.35588,0 0.67221,-0.0791 1.02809,-0.23751 0.31634,-0.11875 0.59313,-0.35626 0.86992,-0.63336 0.23726,-0.2771 0.47451,-0.59378 0.63268,-0.95005 0.15817,-0.35626 0.27679,-0.75212 0.35588,-1.18756 0.11862,-0.59377 0.15817,-1.14797 0.0791,-1.66257 -0.0791,-0.87088 -0.39542,-1.54383 -0.86991,-2.01885 -0.47451,-0.43544 -1.02811,-0.67296 -1.70031,-0.67296 -0.51406,0 -0.94901,0.11877 -1.34444,0.35628 -0.39542,0.23751 -0.71176,0.59377 -0.98855,1.02921 -0.31633,0.47502 -0.4745,0.98964 -0.59312,1.62299 -0.0791,0.59379 -0.0791,1.14798 -0.0396,1.623 z m 8.62017,3.76061 0.90947,-9.4213 h 1.46305 l -0.11862,1.623 c 0.55359,-0.63337 1.10717,-1.10839 1.62122,-1.38549 0.51404,-0.31667 1.06764,-0.47502 1.66077,-0.47502 0.7513,0 1.38397,0.23751 1.85848,0.63337 0.51404,0.43544 0.79084,0.98963 0.86992,1.66258 0.0396,0.35626 0,0.91046 -0.0791,1.66258 l -0.63268,5.70028 h -1.58168 l 0.63267,-5.97738 c 0.0791,-0.59378 0.0791,-0.98963 0.0791,-1.26673 -0.0396,-0.31668 -0.19771,-0.59378 -0.43497,-0.7917 -0.23725,-0.19793 -0.55358,-0.2771 -0.98855,-0.2771 -0.83037,0 -1.54213,0.2771 -2.13527,0.87087 -0.59313,0.59378 -0.94901,1.623 -1.10717,3.04807 l -0.39542,4.39397 z m 13.72109,-1.30632 -0.11863,1.30632 c -0.39541,0.11875 -0.75129,0.15833 -1.10717,0.15833 -0.63267,0 -1.14672,-0.15833 -1.58169,-0.47502 -0.31633,-0.23751 -0.4745,-0.55419 -0.51404,-0.98963 -0.0396,-0.19793 0,-0.67295 0.0396,-1.42507 l 0.5536,-5.46277 h -1.26536 l 0.11863,-1.22714 h 1.26535 l 0.19771,-2.33553 1.73985,-1.10839 -0.35588,3.44392 h 1.58168 l -0.11862,1.22714 h -1.58169 l -0.51404,5.22526 c -0.0396,0.63336 -0.0791,1.02921 -0.0396,1.18756 0,0.15834 0.0791,0.31668 0.19771,0.43544 0.11862,0.0791 0.31633,0.11875 0.55358,0.11875 0.35588,0 0.67222,0 0.94901,-0.0791 z m 7.63162,0.11875 c -0.47451,0.47502 -0.98855,0.83129 -1.46306,1.06881 -0.51404,0.19792 -1.02809,0.31667 -1.62123,0.31667 -0.86992,0 -1.58167,-0.27709 -2.17481,-0.7917 -0.59313,-0.47502 -0.949,-1.14797 -1.02809,-1.93967 -0.0791,-0.51462 0,-0.98964 0.19771,-1.38548 0.19771,-0.43544 0.47451,-0.75213 0.83038,-0.98964 0.39542,-0.23751 0.83039,-0.43543 1.42352,-0.51461 0.35588,-0.0791 1.02809,-0.11875 2.01664,-0.15834 1.0281,-0.0791 1.73986,-0.15834 2.13527,-0.35627 0.0791,-0.43543 0.11863,-0.7917 0.0791,-1.0688 -0.0396,-0.39585 -0.19771,-0.67295 -0.51404,-0.87087 -0.39543,-0.31669 -0.94901,-0.43544 -1.66077,-0.43544 -0.71176,0 -1.22581,0.11875 -1.62123,0.43544 -0.39541,0.2771 -0.67222,0.71253 -0.79084,1.26672 l -1.66077,-0.15834 c 0.23726,-0.91046 0.67222,-1.623 1.34444,-2.1376 0.67221,-0.47502 1.54214,-0.75212 2.64932,-0.75212 1.14671,0 2.09572,0.2771 2.84702,0.83129 0.55358,0.43543 0.86993,0.98963 0.94901,1.62299 0.0396,0.51462 0.0396,1.10839 -0.0396,1.74176 l -0.23726,2.37511 c -0.0791,0.71253 -0.0791,1.3459 -0.0396,1.78134 0.0396,0.31668 0.15817,0.75212 0.31634,1.30632 h -1.62123 c -0.11862,-0.31669 -0.19771,-0.71255 -0.31633,-1.18757 z m 0.19771,-3.60225 c -0.19771,0.0791 -0.43497,0.15834 -0.67222,0.19793 -0.27679,0.0396 -0.71176,0.11875 -1.30488,0.15833 -0.90947,0.0791 -1.54215,0.19793 -1.93756,0.31669 -0.35589,0.11875 -0.63268,0.31668 -0.79085,0.59377 -0.15816,0.27711 -0.23724,0.59378 -0.1977,0.95005 0.0396,0.43543 0.23725,0.79171 0.59312,1.10839 0.35589,0.27709 0.79084,0.43543 1.38398,0.43543 0.51404,0 1.02809,-0.15834 1.46305,-0.43543 0.47451,-0.2771 0.83038,-0.67296 1.06763,-1.18756 0.19772,-0.47502 0.35589,-1.22714 0.39543,-2.1376 z m 3.71695,4.78982 1.26534,-13.02356 h 1.58169 l -0.47451,4.67107 c 0.47451,-0.47503 0.86992,-0.79171 1.26535,-0.98964 0.35587,-0.19793 0.79084,-0.31668 1.2258,-0.31668 0.83038,0 1.58168,0.35626 2.21436,0.98963 0.67221,0.67295 1.06763,1.623 1.18626,2.88973 0.11862,0.83128 0.0791,1.5834 -0.0791,2.25635 -0.15816,0.71253 -0.39542,1.26673 -0.67221,1.74176 -0.2768,0.47502 -0.59314,0.87087 -0.90947,1.14797 -0.35588,0.27709 -0.67222,0.47502 -1.06764,0.59377 -0.35588,0.15835 -0.71175,0.23751 -1.06763,0.23751 -0.59313,0 -1.14673,-0.15833 -1.66077,-0.47502 -0.47451,-0.35626 -0.90946,-0.83128 -1.2258,-1.50423 l -0.19772,1.78134 z m 1.93756,-3.87936 v 0.31668 c 0.0791,0.79171 0.35587,1.38548 0.79084,1.82092 0.39542,0.39586 0.86993,0.63337 1.42351,0.63337 0.55359,0 1.02809,-0.19793 1.46306,-0.59379 0.39542,-0.39585 0.71176,-1.02921 0.90947,-1.8605 0.1977,-0.83129 0.27679,-1.58341 0.1977,-2.29595 -0.11862,-0.7917 -0.35587,-1.38548 -0.79084,-1.82092 -0.39541,-0.43543 -0.86992,-0.67294 -1.42351,-0.67294 -0.55359,0 -1.06763,0.23751 -1.46306,0.67294 -0.43495,0.43544 -0.7513,1.14797 -0.949,2.05843 -0.15817,0.71254 -0.23725,1.26674 -0.15817,1.74176 z m 8.02704,3.87936 1.26534,-13.02356 h 1.58168 l -1.26535,13.02356 z m 10.71589,-3.20641 1.58168,0.15833 c -0.15817,0.75213 -0.59313,1.50425 -1.30489,2.1772 -0.75129,0.71253 -1.66076,1.06879 -2.76795,1.06879 -0.71174,0 -1.38396,-0.15833 -1.9771,-0.47502 -0.63266,-0.35626 -1.14671,-0.7917 -1.50259,-1.42507 -0.35588,-0.59377 -0.59313,-1.3063 -0.67222,-2.09801 -0.11862,-1.02922 0,-2.01885 0.35588,-2.9689 0.35588,-0.98963 0.90947,-1.70216 1.62123,-2.17718 0.71175,-0.47503 1.5026,-0.71254 2.37252,-0.71254 1.14672,0 2.05619,0.35626 2.80749,1.06881 0.75129,0.67294 1.18626,1.62299 1.34442,2.85013 0.0396,0.43544 0.0396,0.91046 0.0396,1.38549 h -6.9594 c 0,0.19792 0,0.35626 0,0.5146 0.11863,0.87088 0.39542,1.54383 0.83038,2.01885 0.4745,0.47503 0.98855,0.71254 1.58168,0.71254 0.55359,0 1.06763,-0.19793 1.58168,-0.5542 0.4745,-0.35626 0.83039,-0.87087 1.06764,-1.54382 z m -4.94276,-2.37512 h 5.29864 c 0,-0.15834 -0.0396,-0.2771 -0.0396,-0.35627 -0.0791,-0.7917 -0.35588,-1.38548 -0.79083,-1.82092 -0.47451,-0.43544 -0.98855,-0.63337 -1.66077,-0.63337 -0.67222,0 -1.26535,0.23752 -1.77939,0.67296 -0.51406,0.47502 -0.86993,1.18755 -1.0281,2.1376 z" style="fill:#616161;fill-opacity:1;fill-rule:nonzero;stroke:none;stroke-width:1.04662788" inkscape:connector-curvature="0"></path></svg>